<svg width="261" height="115" viewBox="0 0 261 115" fill="none" xmlns="http://www.w3.org/2000/svg">
<g filter="url(#filter0_d_101_184)">
<rect x="20" y="10" width="220.141" height="75" rx="18" fill="#292F36" shape-rendering="crispEdges"/>
<path d="M75.8335 49.32H79.4515C79.3435 49.704 79.1875 50.058 78.9835 50.382C78.7795 50.706 78.5275 50.994 78.2275 51.246C77.9395 51.498 77.5915 51.696 77.1835 51.84C76.7755 51.972 76.3135 52.038 75.7975 52.038C75.0175 52.038 74.3155 51.858 73.6915 51.498C73.0795 51.138 72.5935 50.634 72.2335 49.986C71.8735 49.326 71.6935 48.564 71.6935 47.7C71.6935 46.824 71.8735 46.068 72.2335 45.432C72.6055 44.796 73.1035 44.31 73.7275 43.974C74.3515 43.626 75.0415 43.452 75.7975 43.452C76.6015 43.452 77.2795 43.626 77.8315 43.974C78.3955 44.31 78.8335 44.754 79.1455 45.306L81.3415 44.028C80.9575 43.44 80.4955 42.936 79.9555 42.516C79.4275 42.084 78.8155 41.748 78.1195 41.508C77.4355 41.268 76.6615 41.148 75.7975 41.148C74.8255 41.148 73.9255 41.304 73.0975 41.616C72.2695 41.928 71.5495 42.372 70.9375 42.948C70.3255 43.524 69.8455 44.22 69.4975 45.036C69.1615 45.84 68.9935 46.728 68.9935 47.7C68.9935 48.672 69.1555 49.566 69.4795 50.382C69.8155 51.198 70.2835 51.9 70.8835 52.488C71.4955 53.076 72.2095 53.532 73.0255 53.856C73.8535 54.18 74.7535 54.342 75.7255 54.342C76.7575 54.342 77.6755 54.156 78.4795 53.784C79.2835 53.412 79.9555 52.902 80.4955 52.254C81.0475 51.594 81.4495 50.838 81.7015 49.986C81.9655 49.134 82.0795 48.228 82.0435 47.268H75.8335V49.32ZM88.1951 54.18C89.1911 54.18 90.0431 53.988 90.7511 53.604C91.4711 53.208 92.0471 52.62 92.4791 51.84L90.4451 51.21C90.2051 51.606 89.8991 51.906 89.5271 52.11C89.1671 52.302 88.7291 52.398 88.2131 52.398C87.7571 52.398 87.3671 52.296 87.0431 52.092C86.7191 51.888 86.4731 51.594 86.3051 51.21C86.1491 50.826 86.0711 50.358 86.0711 49.806C86.0831 49.23 86.1671 48.75 86.3231 48.366C86.4911 47.97 86.7251 47.676 87.0251 47.484C87.3371 47.28 87.7211 47.178 88.1771 47.178C88.5491 47.178 88.8731 47.262 89.1491 47.43C89.4251 47.598 89.6351 47.826 89.7791 48.114C89.9351 48.402 90.0131 48.75 90.0131 49.158C90.0131 49.242 89.9891 49.35 89.9411 49.482C89.9051 49.602 89.8631 49.698 89.8151 49.77L90.4451 48.942H85.0631V50.382H92.4791C92.4911 50.31 92.4971 50.214 92.4971 50.094C92.5091 49.974 92.5151 49.86 92.5151 49.752C92.5151 48.864 92.3471 48.108 92.0111 47.484C91.6751 46.848 91.1831 46.368 90.5351 46.044C89.8991 45.708 89.1251 45.54 88.2131 45.54C87.3011 45.54 86.5091 45.72 85.8371 46.08C85.1651 46.428 84.6431 46.926 84.2711 47.574C83.9111 48.21 83.7311 48.972 83.7311 49.86C83.7311 50.736 83.9111 51.498 84.2711 52.146C84.6431 52.782 85.1651 53.28 85.8371 53.64C86.5091 54 87.2951 54.18 88.1951 54.18ZM93.5715 45.72V47.682H98.6835V45.72H93.5715ZM94.9935 42.84V54H97.2435V42.84H94.9935ZM107.355 49.77L105.519 51.066C105.795 51.654 106.179 52.2 106.671 52.704C107.163 53.208 107.739 53.61 108.399 53.91C109.071 54.198 109.791 54.342 110.559 54.342C111.135 54.342 111.681 54.252 112.197 54.072C112.725 53.904 113.199 53.658 113.619 53.334C114.039 52.998 114.369 52.59 114.609 52.11C114.849 51.63 114.969 51.084 114.969 50.472C114.969 49.932 114.879 49.458 114.699 49.05C114.531 48.63 114.291 48.27 113.979 47.97C113.679 47.658 113.337 47.394 112.953 47.178C112.581 46.962 112.191 46.782 111.783 46.638C111.147 46.422 110.619 46.212 110.199 46.008C109.779 45.792 109.467 45.57 109.263 45.342C109.059 45.102 108.957 44.826 108.957 44.514C108.957 44.202 109.083 43.932 109.335 43.704C109.587 43.464 109.965 43.344 110.469 43.344C110.853 43.344 111.195 43.422 111.495 43.578C111.795 43.722 112.059 43.92 112.287 44.172C112.527 44.412 112.731 44.682 112.899 44.982L114.915 43.866C114.699 43.422 114.393 42.996 113.997 42.588C113.613 42.168 113.127 41.826 112.539 41.562C111.963 41.286 111.273 41.148 110.469 41.148C109.689 41.148 108.981 41.292 108.345 41.58C107.721 41.856 107.223 42.258 106.851 42.786C106.491 43.302 106.311 43.92 106.311 44.64C106.311 45.24 106.425 45.756 106.653 46.188C106.881 46.608 107.169 46.968 107.517 47.268C107.865 47.556 108.231 47.796 108.615 47.988C109.011 48.168 109.359 48.312 109.659 48.42C110.223 48.636 110.697 48.84 111.081 49.032C111.477 49.212 111.771 49.422 111.963 49.662C112.167 49.902 112.269 50.22 112.269 50.616C112.269 51.072 112.107 51.432 111.783 51.696C111.459 51.96 111.039 52.092 110.523 52.092C110.079 52.092 109.665 51.996 109.281 51.804C108.897 51.612 108.543 51.342 108.219 50.994C107.907 50.646 107.619 50.238 107.355 49.77ZM116.15 45.72V47.682H121.262V45.72H116.15ZM117.572 42.84V54H119.822V42.84H117.572ZM124.519 51.426C124.519 51.186 124.573 50.988 124.681 50.832C124.789 50.664 124.957 50.538 125.185 50.454C125.413 50.358 125.707 50.31 126.067 50.31C126.511 50.31 126.931 50.37 127.327 50.49C127.735 50.61 128.101 50.79 128.425 51.03V49.95C128.305 49.806 128.107 49.656 127.831 49.5C127.555 49.344 127.213 49.212 126.805 49.104C126.409 48.996 125.947 48.942 125.419 48.942C124.387 48.942 123.589 49.176 123.025 49.644C122.461 50.112 122.179 50.748 122.179 51.552C122.179 52.116 122.311 52.596 122.575 52.992C122.851 53.376 123.211 53.67 123.655 53.874C124.099 54.078 124.579 54.18 125.095 54.18C125.599 54.18 126.079 54.09 126.535 53.91C127.003 53.73 127.381 53.46 127.669 53.1C127.969 52.74 128.119 52.296 128.119 51.768L127.831 50.688C127.831 51.084 127.741 51.426 127.561 51.714C127.381 51.99 127.147 52.206 126.859 52.362C126.571 52.506 126.247 52.578 125.887 52.578C125.635 52.578 125.401 52.536 125.185 52.452C124.981 52.356 124.819 52.224 124.699 52.056C124.579 51.876 124.519 51.666 124.519 51.426ZM123.619 48.06C123.739 47.976 123.925 47.874 124.177 47.754C124.429 47.634 124.729 47.532 125.077 47.448C125.425 47.364 125.791 47.322 126.175 47.322C126.427 47.322 126.655 47.346 126.859 47.394C127.063 47.442 127.237 47.52 127.381 47.628C127.537 47.736 127.651 47.874 127.723 48.042C127.795 48.198 127.831 48.39 127.831 48.618V54H130.081V48.132C130.081 47.568 129.925 47.094 129.613 46.71C129.301 46.314 128.869 46.014 128.317 45.81C127.765 45.606 127.135 45.504 126.427 45.504C125.659 45.504 124.963 45.612 124.339 45.828C123.715 46.032 123.187 46.248 122.755 46.476L123.619 48.06ZM134.895 45.72H132.609V54H134.895V45.72ZM137.325 48.15L138.387 46.17C138.219 45.954 137.997 45.792 137.721 45.684C137.457 45.576 137.175 45.522 136.875 45.522C136.443 45.522 136.023 45.678 135.615 45.99C135.207 46.29 134.877 46.698 134.625 47.214C134.373 47.718 134.247 48.3 134.247 48.96L134.895 49.608C134.895 49.212 134.943 48.876 135.039 48.6C135.147 48.312 135.303 48.09 135.507 47.934C135.711 47.778 135.957 47.7 136.245 47.7C136.485 47.7 136.683 47.742 136.839 47.826C137.007 47.898 137.169 48.006 137.325 48.15ZM138.921 45.72V47.682H144.033V45.72H138.921ZM140.343 42.84V54H142.593V42.84H140.343ZM149.54 54.18C150.536 54.18 151.388 53.988 152.096 53.604C152.816 53.208 153.392 52.62 153.824 51.84L151.79 51.21C151.55 51.606 151.244 51.906 150.872 52.11C150.512 52.302 150.074 52.398 149.558 52.398C149.102 52.398 148.712 52.296 148.388 52.092C148.064 51.888 147.818 51.594 147.65 51.21C147.494 50.826 147.416 50.358 147.416 49.806C147.428 49.23 147.512 48.75 147.668 48.366C147.836 47.97 148.07 47.676 148.37 47.484C148.682 47.28 149.066 47.178 149.522 47.178C149.894 47.178 150.218 47.262 150.494 47.43C150.77 47.598 150.98 47.826 151.124 48.114C151.28 48.402 151.358 48.75 151.358 49.158C151.358 49.242 151.334 49.35 151.286 49.482C151.25 49.602 151.208 49.698 151.16 49.77L151.79 48.942H146.408V50.382H153.824C153.836 50.31 153.842 50.214 153.842 50.094C153.854 49.974 153.86 49.86 153.86 49.752C153.86 48.864 153.692 48.108 153.356 47.484C153.02 46.848 152.528 46.368 151.88 46.044C151.244 45.708 150.47 45.54 149.558 45.54C148.646 45.54 147.854 45.72 147.182 46.08C146.51 46.428 145.988 46.926 145.616 47.574C145.256 48.21 145.076 48.972 145.076 49.86C145.076 50.736 145.256 51.498 145.616 52.146C145.988 52.782 146.51 53.28 147.182 53.64C147.854 54 148.64 54.18 149.54 54.18ZM162.224 39.96V54H164.564V39.96H162.224ZM155.42 49.86C155.42 50.772 155.606 51.552 155.978 52.2C156.35 52.848 156.842 53.34 157.454 53.676C158.066 54.012 158.714 54.18 159.398 54.18C160.094 54.18 160.706 54.006 161.234 53.658C161.774 53.31 162.194 52.812 162.494 52.164C162.806 51.516 162.962 50.748 162.962 49.86C162.962 48.96 162.806 48.192 162.494 47.556C162.194 46.908 161.774 46.41 161.234 46.062C160.706 45.714 160.094 45.54 159.398 45.54C158.714 45.54 158.066 45.708 157.454 46.044C156.842 46.38 156.35 46.872 155.978 47.52C155.606 48.156 155.42 48.936 155.42 49.86ZM157.832 49.86C157.832 49.368 157.934 48.942 158.138 48.582C158.342 48.222 158.618 47.946 158.966 47.754C159.314 47.562 159.686 47.466 160.082 47.466C160.43 47.466 160.766 47.562 161.09 47.754C161.426 47.934 161.696 48.204 161.9 48.564C162.116 48.924 162.224 49.356 162.224 49.86C162.224 50.364 162.116 50.796 161.9 51.156C161.696 51.516 161.426 51.792 161.09 51.984C160.766 52.164 160.43 52.254 160.082 52.254C159.686 52.254 159.314 52.158 158.966 51.966C158.618 51.774 158.342 51.498 158.138 51.138C157.934 50.778 157.832 50.352 157.832 49.86Z" fill="white"/>
<path d="M176 47.4354L189.723 47.2986M184.618 40.9114L191.141 47.4344L184.487 54.0887" stroke="#CDA274" stroke-width="2" stroke-linecap="square" stroke-linejoin="round"/>
</g>
<defs>
<filter id="filter0_d_101_184" x="0" y="0" width="260.141" height="115" filterUnits="userSpaceOnUse" color-interpolation-filters="sRGB">
<feFlood flood-opacity="0" result="BackgroundImageFix"/>
<feColorMatrix in="SourceAlpha" type="matrix" values="0 0 0 0 0 0 0 0 0 0 0 0 0 0 0 0 0 0 127 0" result="hardAlpha"/>
<feOffset dy="10"/>
<feGaussianBlur stdDeviation="10"/>
<feComposite in2="hardAlpha" operator="out"/>
<feColorMatrix type="matrix" values="0 0 0 0 0.754167 0 0 0 0 0.754167 0 0 0 0 0.754167 0 0 0 0.35 0"/>
<feBlend mode="normal" in2="BackgroundImageFix" result="effect1_dropShadow_101_184"/>
<feBlend mode="normal" in="SourceGraphic" in2="effect1_dropShadow_101_184" result="shape"/>
</filter>
</defs>
</svg>
